<svg width="350" height="61" viewBox="0 0 350 61" fill="none" xmlns="http://www.w3.org/2000/svg">
<path d="M13.125 40.625V14.375H4.375V10H30.625V14.375H21.875V40.625H13.125ZM39.375 40.625V36.25H35V10H43.75V36.25H56.875V10H65.625V36.25H61.25V40.625H39.375ZM70 40.625V10H96.25V14.375H100.625V27.5H91.875V31.875H96.25V36.25H100.625V40.625H87.5V36.25H83.125V31.875H78.75V40.625H70ZM78.75 27.5H87.5V23.125H91.875V14.375H78.75V27.5ZM105 40.625V10H131.25V14.375H135.625V23.125H131.25V27.5H135.625V36.25H131.25V40.625H105ZM113.75 23.125H126.875V14.375H113.75V23.125ZM113.75 36.25H126.875V27.5H113.75V36.25ZM144.375 40.625V36.25H140V14.375H144.375V10H166.25V14.375H170.625V36.25H166.25V40.625H144.375ZM148.75 36.25H161.875V14.375H148.75V36.25ZM175 45V40.625H205.625V45H175ZM210 40.625V10H231.875V14.375H236.25V18.75H240.625V31.875H236.25V36.25H231.875V40.625H210ZM218.75 36.25H227.5V31.875H231.875V18.75H227.5V14.375H218.75V36.25ZM245 40.625V18.75H249.375V14.375H253.75V10H266.875V14.375H271.25V18.75H275.625V40.625H266.875V31.875H253.75V40.625H245ZM253.75 27.5H266.875V18.75H262.5V14.375H258.125V18.75H253.75V27.5ZM284.375 40.625V36.25H280V31.875H288.75V36.25H301.875V27.5H284.375V23.125H280V14.375H284.375V10H306.25V14.375H310.625V18.75H301.875V14.375H288.75V23.125H306.25V27.5H310.625V36.25H306.25V40.625H284.375ZM315 40.625V10H323.75V23.125H336.875V10H345.625V40.625H336.875V27.5H323.75V40.625H315Z" fill="#75DD6A"/>
</svg>
