<svg width="1759" height="1203" viewBox="0 0 1759 1203" fill="none" xmlns="http://www.w3.org/2000/svg">
<path d="M1759 17H0V1202.93H1759V17Z" fill="#060A02"/>
<path d="M1759 17H0V1202.93H1759V17Z" fill="#060A02"/>
<path d="M66.6654 57.499L68.469 60.9966L71.7843 62.8959L68.469 64.8185L66.6654 68.2929L64.8445 64.8185L61.5464 62.8959L64.8445 60.9966L66.6654 57.499Z" fill="#709463"/>
<path d="M213.295 374.667L215.098 378.164L218.414 380.063L215.098 381.986L213.295 385.46L211.491 381.986L208.176 380.063L211.491 378.164L213.295 374.667Z" fill="#709463"/>
<path d="M322.064 437.971L323.868 441.468L327.183 443.368L323.868 445.29L322.064 448.788L320.243 445.29L316.945 443.368L320.243 441.468L322.064 437.971Z" fill="#709463"/>
<path d="M360.439 505.027L362.26 508.525L365.558 510.447L362.26 512.347L360.439 515.844L358.636 512.347L355.337 510.447L358.636 508.525L360.439 505.027Z" fill="#709463"/>
<path d="M333.505 491.639L335.308 495.136L338.624 497.059L335.308 498.958L333.505 502.456L331.701 498.958L328.386 497.059L331.701 495.136L333.505 491.639Z" fill="#709463"/>
<path d="M377.411 415.758L379.215 419.255L382.513 421.178L379.215 423.077L377.411 426.575L375.59 423.077L372.292 421.178L375.59 419.255L377.411 415.758Z" fill="#709463"/>
<path d="M403.796 232.609L405.599 236.107L408.915 238.006L405.599 239.929L403.796 243.426L401.975 239.929L398.677 238.006L401.975 236.107L403.796 232.609Z" fill="#709463"/>
<path d="M380.95 168.263L382.753 171.761L386.068 173.66L382.753 175.583L380.95 179.08L379.146 175.583L375.831 173.66L379.146 171.761L380.95 168.263Z" fill="#709463"/>
<path d="M425.612 121.405L427.432 124.902L430.731 126.825L427.432 128.724L425.612 132.222L423.808 128.724L420.51 126.825L423.808 124.902L425.612 121.405Z" fill="#709463"/>
<path d="M426.058 152.559L427.862 156.056L431.177 157.956L427.862 159.878L426.058 163.376L424.255 159.878L420.939 157.956L424.255 156.056L426.058 152.559Z" fill="#709463"/>
<path d="M391.153 128.655L392.974 132.129L396.272 134.052L392.974 135.974L391.153 139.449L389.349 135.974L386.034 134.052L389.349 132.129L391.153 128.655Z" fill="#709463"/>
<path d="M283.174 190.639L284.977 194.136L288.293 196.036L284.977 197.935L283.174 201.433L281.37 197.935L278.055 196.036L281.37 194.136L283.174 190.639Z" fill="#709463"/>
<path d="M321.429 540.836L323.249 544.334L326.548 546.256L323.249 548.155L321.429 551.653L319.625 548.155L316.31 546.256L319.625 544.334L321.429 540.836Z" fill="#709463"/>
<path d="M473.28 676.014L475.083 679.512L478.381 681.434L475.083 683.334L473.28 686.831L471.459 683.334L468.161 681.434L471.459 679.512L473.28 676.014Z" fill="#709463"/>
<path d="M424.461 799.958L426.264 803.432L429.58 805.355L426.264 807.254L424.461 810.752L422.657 807.254L419.342 805.355L422.657 803.432L424.461 799.958Z" fill="#709463"/>
<path d="M400.532 845.82L402.336 849.318L405.634 851.24L402.336 853.14L400.532 856.637L398.711 853.14L395.413 851.24L398.711 849.318L400.532 845.82Z" fill="#709463"/>
<path d="M576.673 820.018L578.476 823.515L581.792 825.415L578.476 827.337L576.673 830.835L574.852 827.337L571.554 825.415L574.852 823.515L576.673 820.018Z" fill="#709463"/>
<path d="M608.675 768.597L610.495 772.094L613.793 774.017L610.495 775.916L608.675 779.414L606.871 775.916L603.573 774.017L606.871 772.094L608.675 768.597Z" fill="#709463"/>
<path d="M370.402 601.871L372.206 605.368L375.521 607.291L372.206 609.19L370.402 612.688L368.598 609.19L365.283 607.291L368.598 605.368L370.402 601.871Z" fill="#709463"/>
<path d="M367.482 334.919L369.303 338.417L372.601 340.316L369.303 342.238L367.482 345.736L365.679 342.238L362.363 340.316L365.679 338.417L367.482 334.919Z" fill="#709463"/>
<path d="M431.984 259.965L433.788 263.462L437.103 265.385L433.788 267.284L431.984 270.782L430.181 267.284L426.865 265.385L430.181 263.462L431.984 259.965Z" fill="#709463"/>
<path d="M534.931 188.484L536.734 191.982L540.049 193.881L536.734 195.804L534.931 199.278L533.11 195.804L529.812 193.881L533.11 191.982L534.931 188.484Z" fill="#709463"/>
<path d="M177.891 108.596L179.712 112.093L183.01 114.016L179.712 115.915L177.891 119.413L176.088 115.915L172.772 114.016L176.088 112.093L177.891 108.596Z" fill="#709463"/>
<path d="M159.529 151.169L161.332 154.667L164.648 156.566L161.332 158.489L159.529 161.986L157.725 158.489L154.41 156.566L157.725 154.667L159.529 151.169Z" fill="#709463"/>
<path d="M454.625 289.544L456.428 293.042L459.744 294.941L456.428 296.863L454.625 300.338L452.821 296.863L449.506 294.941L452.821 293.042L454.625 289.544Z" fill="#709463"/>
<path d="M790.192 270.157L792.013 273.654L795.311 275.554L792.013 277.476L790.192 280.974L788.388 277.476L785.073 275.554L788.388 273.654L790.192 270.157Z" fill="#709463"/>
<path d="M743.279 139.147L745.083 142.645L748.398 144.544L745.083 146.467L743.279 149.941L741.475 146.467L738.16 144.544L741.475 142.645L743.279 139.147Z" fill="#709463"/>
<path d="M660.139 203.563L661.943 207.061L665.258 208.96L661.943 210.882L660.139 214.38L658.335 210.882L655.02 208.96L658.335 207.061L660.139 203.563Z" fill="#709463"/>
<path d="M656.119 352.477L657.923 355.974L661.238 357.897L657.923 359.796L656.119 363.294L654.299 359.796L651 357.897L654.299 355.974L656.119 352.477Z" fill="#709463"/>
<path d="M446.774 632.445L448.578 635.943L451.893 637.842L448.578 639.765L446.774 643.262L444.953 639.765L441.655 637.842L444.953 635.943L446.774 632.445Z" fill="#709463"/>
<path d="M608.881 701.238L610.684 704.736L614 706.635L610.684 708.558L608.881 712.055L607.06 708.558L603.762 706.635L607.06 704.736L608.881 701.238Z" fill="#709463"/>
<path d="M796.771 735.612L798.592 739.11L801.89 741.032L798.592 742.932L796.771 746.429L794.967 742.932L791.652 741.032L794.967 739.11L796.771 735.612Z" fill="#709463"/>
<path d="M519.866 394.633L521.686 398.131L524.984 400.03L521.686 401.953L519.866 405.45L518.062 401.953L514.747 400.03L518.062 398.131L519.866 394.633Z" fill="#709463"/>
<path d="M548.656 380.179L550.459 383.653L553.775 385.576L550.459 387.498L548.656 390.973L546.852 387.498L543.537 385.576L546.852 383.653L548.656 380.179Z" fill="#709463"/>
<path d="M751.954 355.326L753.758 358.824L757.073 360.746L753.758 362.646L751.954 366.143L750.15 362.646L746.835 360.746L750.15 358.824L751.954 355.326Z" fill="#709463"/>
<path d="M669.827 301.958L671.631 305.456L674.946 307.355L671.631 309.278L669.827 312.776L668.024 309.278L664.708 307.355L668.024 305.456L669.827 301.958Z" fill="#709463"/>
<path d="M584.574 389.676L586.378 393.173L589.676 395.073L586.378 396.995L584.574 400.493L582.753 396.995L579.455 395.073L582.753 393.173L584.574 389.676Z" fill="#709463"/>
<path d="M643.597 584.73L645.401 588.228L648.716 590.15L645.401 592.049L643.597 595.547L641.776 592.049L638.478 590.15L641.776 588.228L643.597 584.73Z" fill="#709463"/>
<path d="M762.621 641.155L764.425 644.652L767.723 646.552L764.425 648.474L762.621 651.949L760.801 648.474L757.502 646.552L760.801 644.652L762.621 641.155Z" fill="#709463"/>
<path d="M872.387 1090.4L874.191 1093.89L877.489 1095.82L874.191 1097.72L872.387 1101.21L870.566 1097.72L867.268 1095.82L870.566 1093.89L872.387 1090.4Z" fill="#709463"/>
<path d="M901.28 997.815L903.101 1001.31L906.399 1003.21L903.101 1005.13L901.28 1008.61L899.477 1005.13L896.178 1003.21L899.477 1001.31L901.28 997.815Z" fill="#709463"/>
<path d="M844.628 793.89L846.431 797.387L849.747 799.31L846.431 801.209L844.628 804.707L842.824 801.209L839.509 799.31L842.824 797.387L844.628 793.89Z" fill="#709463"/>
<path d="M758.413 607.268L760.234 610.742L763.532 612.664L760.234 614.564L758.413 618.061L756.609 614.564L753.294 612.664L756.609 610.742L758.413 607.268Z" fill="#709463"/>
<path d="M837.637 478.644L839.44 482.142L842.755 484.041L839.44 485.963L837.637 489.461L835.833 485.963L832.518 484.041L835.833 482.142L837.637 478.644Z" fill="#709463"/>
<path d="M967.054 365.772L968.875 369.247L972.173 371.169L968.875 373.069L967.054 376.566L965.25 373.069L961.952 371.169L965.25 369.247L967.054 365.772Z" fill="#709463"/>
<path d="M1081.89 289.983L1083.69 293.458L1086.99 295.38L1083.69 297.28L1081.89 300.777L1080.07 297.28L1076.77 295.38L1080.07 293.458L1081.89 289.983Z" fill="#709463"/>
<path d="M1224.22 223.646L1226.03 227.143L1229.34 229.066L1226.03 230.965L1224.22 234.463L1222.42 230.965L1219.1 229.066L1222.42 227.143L1224.22 223.646Z" fill="#709463"/>
<path d="M1333.76 198.746L1335.58 202.22L1338.88 204.143L1335.58 206.042L1333.76 209.539L1331.96 206.042L1328.66 204.143L1331.96 202.22L1333.76 198.746Z" fill="#709463"/>
<path d="M1427.38 197.471L1429.2 200.969L1432.5 202.868L1429.2 204.791L1427.38 208.288L1425.58 204.791L1422.26 202.868L1425.58 200.969L1427.38 197.471Z" fill="#709463"/>
<path d="M1585.13 285.305L1586.93 288.802L1590.24 290.725L1586.93 292.624L1585.13 296.122L1583.32 292.624L1580.01 290.725L1583.32 288.802L1585.13 285.305Z" fill="#709463"/>
<path d="M1701.32 296.237L1703.12 299.734L1706.44 301.634L1703.12 303.556L1701.32 307.054L1699.51 303.556L1696.2 301.634L1699.51 299.734L1701.32 296.237Z" fill="#709463"/>
<path d="M1725.91 206.945L1727.74 210.443L1731.03 212.342L1727.74 214.265L1725.91 217.762L1724.11 214.265L1720.8 212.342L1724.11 210.443L1725.91 206.945Z" fill="#709463"/>
<path d="M1733.01 143.919L1734.81 147.417L1738.11 149.34L1734.81 151.239L1733.01 154.736L1731.19 151.239L1727.89 149.34L1731.19 147.417L1733.01 143.919Z" fill="#709463"/>
<path d="M1674.66 97.0615L1676.48 100.559L1679.77 102.482L1676.48 104.381L1674.66 107.879L1672.85 104.381L1669.55 102.482L1672.85 100.559L1674.66 97.0615Z" fill="#709463"/>
<path d="M1527.73 93.957L1529.54 97.4546L1532.85 99.3771L1529.54 101.276L1527.73 104.774L1525.91 101.276L1522.62 99.3771L1525.91 97.4546L1527.73 93.957Z" fill="#709463"/>
<path d="M1339.42 107.924L1341.22 111.399L1344.53 113.321L1341.22 115.221L1339.42 118.718L1337.59 115.221L1334.3 113.321L1337.59 111.399L1339.42 107.924Z" fill="#709463"/>
<path d="M1174.32 118.255L1176.14 121.752L1179.44 123.675L1176.14 125.574L1174.32 129.072L1172.52 125.574L1169.2 123.675L1172.52 121.752L1174.32 118.255Z" fill="#709463"/>
<path d="M1031.13 175.003L1032.95 178.501L1036.25 180.423L1032.95 182.323L1031.13 185.82L1029.32 182.323L1026.02 180.423L1029.32 178.501L1031.13 175.003Z" fill="#709463"/>
<path d="M794.589 232.795L796.393 236.293L799.691 238.192L796.393 240.114L794.589 243.612L792.768 240.114L789.47 238.192L792.768 236.293L794.589 232.795Z" fill="#709463"/>
<path d="M624.667 368.69L626.488 372.188L629.786 374.111L626.488 376.01L624.667 379.507L622.864 376.01L619.565 374.111L622.864 372.188L624.667 368.69Z" fill="#709463"/>
<path d="M604.792 586.097L606.613 589.594L609.911 591.517L606.613 593.416L604.792 596.914L602.989 593.416L599.69 591.517L602.989 589.594L604.792 586.097Z" fill="#709463"/>
<path d="M650.073 748.63L651.877 752.127L655.192 754.05L651.877 755.949L650.073 759.447L648.269 755.949L644.954 754.05L648.269 752.127L650.073 748.63Z" fill="#709463"/>
<path d="M607.077 899.674L608.898 903.172L612.196 905.071L608.898 906.994L607.077 910.491L605.273 906.994L601.958 905.071L605.273 903.172L607.077 899.674Z" fill="#709463"/>
<path d="M564.184 957.582L566.005 961.079L569.303 963.002L566.005 964.901L564.184 968.399L562.381 964.901L559.065 963.002L562.381 961.079L564.184 957.582Z" fill="#709463"/>
<path d="M471.992 1034.78L473.812 1038.28L477.111 1040.18L473.812 1042.1L471.992 1045.6L470.188 1042.1L466.873 1040.18L470.188 1038.28L471.992 1034.78Z" fill="#709463"/>
<path d="M348.415 1046.85L350.236 1050.35L353.534 1052.27L350.236 1054.17L348.415 1057.67L346.611 1054.17L343.296 1052.27L346.611 1050.35L348.415 1046.85Z" fill="#709463"/>
<path d="M256.978 1010.39L258.782 1013.89L262.097 1015.79L258.782 1017.71L256.978 1021.21L255.157 1017.71L251.859 1015.79L255.157 1013.89L256.978 1010.39Z" fill="#709463"/>
<path d="M136.373 1002.82L138.177 1006.32L141.492 1008.21L138.177 1010.14L136.373 1013.63L134.569 1010.14L131.254 1008.21L134.569 1006.32L136.373 1002.82Z" fill="#709463"/>
<path d="M174.044 1049.51L175.865 1053.01L179.163 1054.93L175.865 1056.83L174.044 1060.33L172.24 1056.83L168.942 1054.93L172.24 1053.01L174.044 1049.51Z" fill="#709463"/>
<path d="M538.813 1116.27L540.616 1119.77L543.932 1121.67L540.616 1123.59L538.813 1127.06L537.009 1123.59L533.694 1121.67L537.009 1119.77L538.813 1116.27Z" fill="#709463"/>
<path d="M746.612 1111.13L748.415 1114.62L751.713 1116.52L748.415 1118.45L746.612 1121.94L744.791 1118.45L741.493 1116.52L744.791 1114.62L746.612 1111.13Z" fill="#709463"/>
<path d="M704.08 1125L705.884 1128.5L709.199 1130.4L705.884 1132.32L704.08 1135.82L702.276 1132.32L698.961 1130.4L702.276 1128.5L704.08 1125Z" fill="#709463"/>
<path d="M301.176 1146.13L302.98 1149.62L306.278 1151.55L302.98 1153.45L301.176 1156.94L299.355 1153.45L296.057 1151.55L299.355 1149.62L301.176 1146.13Z" fill="#709463"/>
<path d="M245.572 1094.82L247.392 1098.32L250.69 1100.22L247.392 1102.14L245.572 1105.64L243.768 1102.14L240.47 1100.22L243.768 1098.32L245.572 1094.82Z" fill="#709463"/>
<path d="M502.413 1033.79L504.217 1037.28L507.532 1039.21L504.217 1041.11L502.413 1044.6L500.609 1041.11L497.294 1039.21L500.609 1037.28L502.413 1033.79Z" fill="#709463"/>
<path d="M331.357 1073.26L333.161 1076.75L336.476 1078.65L333.161 1080.57L331.357 1084.07L329.554 1080.57L326.238 1078.65L329.554 1076.75L331.357 1073.26Z" fill="#709463"/>
<path d="M163.788 984.404L165.592 987.902L168.907 989.801L165.592 991.724L163.788 995.198L161.985 991.724L158.669 989.801L161.985 987.902L163.788 984.404Z" fill="#709463"/>
<path d="M290.955 756.32L292.776 759.794L296.074 761.717L292.776 763.639L290.955 767.114L289.152 763.639L285.836 761.717L289.152 759.794L290.955 756.32Z" fill="#709463"/>
<path d="M338.881 740.686L340.702 744.183L344 746.106L340.702 748.005L338.881 751.503L337.077 748.005L333.779 746.106L337.077 744.183L338.881 740.686Z" fill="#709463"/>
<path d="M235.008 1046.5L236.828 1050L240.127 1051.92L236.828 1053.82L235.008 1057.32L233.204 1053.82L229.906 1051.92L233.204 1050L235.008 1046.5Z" fill="#709463"/>
<path d="M342.128 988.875L343.931 992.372L347.23 994.271L343.931 996.194L342.128 999.691L340.307 996.194L337.009 994.271L340.307 992.372L342.128 988.875Z" fill="#709463"/>
<path d="M199.312 690.236L201.133 693.733L204.431 695.656L201.133 697.555L199.312 701.053L197.508 697.555L194.193 695.656L197.508 693.733L199.312 690.236Z" fill="#709463"/>
<path d="M135.841 646.366L137.644 649.864L140.96 651.763L137.644 653.686L135.841 657.183L134.037 653.686L130.722 651.763L134.037 649.864L135.841 646.366Z" fill="#709463"/>
<path d="M231.864 830.348L233.668 833.846L236.983 835.745L233.668 837.668L231.864 841.165L230.06 837.668L226.745 835.745L230.06 833.846L231.864 830.348Z" fill="#709463"/>
<path d="M239.353 778.232L241.157 781.729L244.472 783.629L241.157 785.551L239.353 789.049L237.55 785.551L234.234 783.629L237.55 781.729L239.353 778.232Z" fill="#709463"/>
<path d="M211.697 487.076L213.501 490.55L216.816 492.473L213.501 494.372L211.697 497.87L209.893 494.372L206.578 492.473L209.893 490.55L211.697 487.076Z" fill="#709463"/>
<path d="M263.213 470.121L265.017 473.618L268.315 475.517L265.017 477.44L263.213 480.938L261.392 477.44L258.094 475.517L261.392 473.618L263.213 470.121Z" fill="#709463"/>
<path d="M205.943 781.614L207.746 785.111L211.062 787.034L207.746 788.933L205.943 792.431L204.139 788.933L200.824 787.034L204.139 785.111L205.943 781.614Z" fill="#709463"/>
<path d="M173.305 719.375L175.109 722.873L178.424 724.772L175.109 726.694L173.305 730.192L171.501 726.694L168.186 724.772L171.501 722.873L173.305 719.375Z" fill="#709463"/>
<path d="M228.532 424.351L230.335 427.849L233.651 429.771L230.335 431.671L228.532 435.168L226.728 431.671L223.413 429.771L226.728 427.849L228.532 424.351Z" fill="#709463"/>
<path d="M295.353 423.471L297.174 426.969L300.472 428.868L297.174 430.791L295.353 434.288L293.549 430.791L290.234 428.868L293.549 426.969L295.353 423.471Z" fill="#709463"/>
<path d="M258.472 633.464L260.276 636.962L263.591 638.884L260.276 640.784L258.472 644.281L256.651 640.784L253.353 638.884L256.651 636.962L258.472 633.464Z" fill="#709463"/>
<path d="M145.614 444.479L147.435 447.977L150.733 449.876L147.435 451.799L145.614 455.297L143.811 451.799L140.513 449.876L143.811 447.977L145.614 444.479Z" fill="#709463"/>
<path d="M198.883 231.498L200.686 234.995L203.984 236.918L200.686 238.817L198.883 242.315L197.062 238.817L193.764 236.918L197.062 234.995L198.883 231.498Z" fill="#709463"/>
<path d="M67.9885 407.558L69.8093 411.055L73.1075 412.955L69.8093 414.877L67.9885 418.375L66.1848 414.877L62.8867 412.955L66.1848 411.055L67.9885 407.558Z" fill="#709463"/>
<path d="M264.794 571.457L266.597 574.955L269.913 576.854L266.597 578.776L264.794 582.274L262.973 578.776L259.675 576.854L262.973 574.955L264.794 571.457Z" fill="#709463"/>
<path d="M550.236 432.62L552.057 436.117L555.355 438.017L552.057 439.939L550.236 443.413L548.432 439.939L545.117 438.017L548.432 436.117L550.236 432.62Z" fill="#709463"/>
<path d="M383.474 257.046L385.278 260.521L388.593 262.443L385.278 264.366L383.474 267.84L381.671 264.366L378.355 262.443L381.671 260.521L383.474 257.046Z" fill="#709463"/>
<path d="M117.975 316.667L119.779 320.165L123.094 322.087L119.779 323.986L117.975 327.484L116.172 323.986L112.856 322.087L116.172 320.165L117.975 316.667Z" fill="#709463"/>
<path d="M101.794 233.629L103.598 237.126L106.913 239.026L103.598 240.948L101.794 244.446L99.9906 240.948L96.6753 239.026L99.9906 237.126L101.794 233.629Z" fill="#709463"/>
<path d="M72.9354 178.339L74.7562 181.836L78.0543 183.736L74.7562 185.658L72.9354 189.156L71.1317 185.658L67.8164 183.736L71.1317 181.836L72.9354 178.339Z" fill="#709463"/>
<path d="M95.5412 374.412L97.3621 377.909L100.66 379.809L97.3621 381.708L95.5412 385.205L93.7376 381.708L90.4395 379.809L93.7376 377.909L95.5412 374.412Z" fill="#709463"/>
<path d="M380.658 463.913L382.461 467.411L385.776 469.31L382.461 471.233L380.658 474.73L378.854 471.233L375.539 469.31L378.854 467.411L380.658 463.913Z" fill="#709463"/>
<path d="M533.368 235.157L535.171 238.655L538.469 240.554L535.171 242.477L533.368 245.974L531.547 242.477L528.249 240.554L531.547 238.655L533.368 235.157Z" fill="#709463"/>
<path d="M701.52 187.812L703.341 191.31L706.639 193.233L703.341 195.132L701.52 198.63L699.717 195.132L696.401 193.233L699.717 191.31L701.52 187.812Z" fill="#709463"/>
<path d="M615.889 200.922L617.693 204.42L621.008 206.342L617.693 208.242L615.889 211.739L614.086 208.242L610.771 206.342L614.086 204.42L615.889 200.922Z" fill="#709463"/>
<path d="M638.358 72.5547L640.178 76.0523L643.477 77.9516L640.178 79.8741L638.358 83.3717L636.554 79.8741L633.256 77.9516L636.554 76.0523L638.358 72.5547Z" fill="#709463"/>
<path d="M768.05 49.3687L769.853 52.8662L773.151 54.7656L769.853 56.6881L768.05 60.1857L766.229 56.6881L762.931 54.7656L766.229 52.8662L768.05 49.3687Z" fill="#709463"/>
<path d="M664.416 113.275L666.22 116.772L669.535 118.695L666.22 120.594L664.416 124.092L662.595 120.594L659.297 118.695L662.595 116.772L664.416 113.275Z" fill="#709463"/>
<path d="M964.614 102.782L966.418 106.28L969.733 108.179L966.418 110.102L964.614 113.599L962.811 110.102L959.495 108.179L962.811 106.28L964.614 102.782Z" fill="#709463"/>
<path d="M1033.45 120.733L1035.25 124.207L1038.56 126.13L1035.25 128.029L1033.45 131.527L1031.64 128.029L1028.33 126.13L1031.64 124.207L1033.45 120.733Z" fill="#709463"/>
<path d="M912.36 223.9L914.18 227.398L917.479 229.32L914.18 231.22L912.36 234.717L910.556 231.22L907.241 229.32L910.556 227.398L912.36 223.9Z" fill="#709463"/>
<path d="M1224.53 116.727L1226.33 120.224L1229.63 122.123L1226.33 124.046L1224.53 127.544L1222.71 124.046L1219.41 122.123L1222.71 120.224L1224.53 116.727Z" fill="#709463"/>
<path d="M1151.87 177.413L1153.69 180.91L1156.99 182.81L1153.69 184.732L1151.87 188.23L1150.07 184.732L1146.77 182.81L1150.07 180.91L1151.87 177.413Z" fill="#709463"/>
<path d="M1112.27 267.215L1114.08 270.712L1117.39 272.612L1114.08 274.534L1112.27 278.032L1110.45 274.534L1107.16 272.612L1110.45 270.712L1112.27 267.215Z" fill="#709463"/>
<path d="M1463.82 114.132L1465.62 117.63L1468.94 119.529L1465.62 121.452L1463.82 124.949L1462.01 121.452L1458.7 119.529L1462.01 117.63L1463.82 114.132Z" fill="#709463"/>
<path d="M1342.73 254.567L1344.53 258.065L1347.85 259.964L1344.53 261.887L1342.73 265.361L1340.93 261.887L1337.61 259.964L1340.93 258.065L1342.73 254.567Z" fill="#709463"/>
<path d="M1408.56 229.969L1410.36 233.467L1413.67 235.389L1410.36 237.289L1408.56 240.786L1406.75 237.289L1403.44 235.389L1406.75 233.467L1408.56 229.969Z" fill="#709463"/>
<path d="M1524.83 163.306L1526.64 166.804L1529.95 168.703L1526.64 170.626L1524.83 174.123L1523.03 170.626L1519.71 168.703L1523.03 166.804L1524.83 163.306Z" fill="#709463"/>
<path d="M1596.91 222.487L1598.71 225.985L1602.03 227.884L1598.71 229.807L1596.91 233.304L1595.09 229.807L1591.79 227.884L1595.09 225.985L1596.91 222.487Z" fill="#709463"/>
<path d="M1583.34 373.74L1585.14 377.214L1588.46 379.137L1585.14 381.059L1583.34 384.534L1581.52 381.059L1578.22 379.137L1581.52 377.214L1583.34 373.74Z" fill="#709463"/>
<path d="M1638.69 342.517L1640.51 346.014L1643.81 347.914L1640.51 349.836L1638.69 353.334L1636.88 349.836L1633.57 347.914L1636.88 346.014L1638.69 342.517Z" fill="#709463"/>
<path d="M1668.28 241.736L1670.09 245.233L1673.4 247.156L1670.09 249.055L1668.28 252.553L1666.48 249.055L1663.16 247.156L1666.48 245.233L1668.28 241.736Z" fill="#709463"/>
<path d="M1632 435.446L1633.81 438.944L1637.12 440.866L1633.81 442.766L1632 446.263L1630.2 442.766L1626.88 440.866L1630.2 438.944L1632 435.446Z" fill="#709463"/>
<path d="M1480.84 691.047L1482.66 694.544L1485.96 696.444L1482.66 698.366L1480.84 701.841L1479.04 698.366L1475.72 696.444L1479.04 694.544L1480.84 691.047Z" fill="#709463"/>
<path d="M1379.15 835.698L1380.95 839.196L1384.27 841.095L1380.95 843.018L1379.15 846.515L1377.34 843.018L1374.03 841.095L1377.34 839.196L1379.15 835.698Z" fill="#709463"/>
<path d="M1451.5 798.824L1453.3 802.321L1456.6 804.221L1453.3 806.12L1451.5 809.618L1449.68 806.12L1446.38 804.221L1449.68 802.321L1451.5 798.824Z" fill="#709463"/>
<path d="M1671 600.781L1672.82 604.279L1676.12 606.178L1672.82 608.101L1671 611.598L1669.19 608.101L1665.9 606.178L1669.19 604.279L1671 600.781Z" fill="#709463"/>
<path d="M1561.76 483.786L1563.58 487.284L1566.88 489.183L1563.58 491.106L1561.76 494.603L1559.96 491.106L1556.65 489.183L1559.96 487.284L1561.76 483.786Z" fill="#709463"/>
<path d="M1281.68 580.12L1283.48 583.618L1286.8 585.517L1283.48 587.44L1281.68 590.937L1279.88 587.44L1276.56 585.517L1279.88 583.618L1281.68 580.12Z" fill="#709463"/>
<path d="M1213 846.354L1214.83 849.851L1218.12 851.75L1214.83 853.673L1213 857.17L1211.2 853.673L1207.9 851.75L1211.2 849.851L1213 846.354Z" fill="#709463"/>
<path d="M1465.17 869.285L1466.98 872.783L1470.29 874.705L1466.98 876.605L1465.17 880.102L1463.37 876.605L1460.05 874.705L1463.37 872.783L1465.17 869.285Z" fill="#709463"/>
<path d="M1529.5 557.907L1531.31 561.405L1534.62 563.304L1531.31 565.227L1529.5 568.724L1527.68 565.227L1524.39 563.304L1527.68 561.405L1529.5 557.907Z" fill="#709463"/>
<path d="M1243.67 530.32L1245.49 533.818L1248.79 535.717L1245.49 537.64L1243.67 541.137L1241.86 537.64L1238.55 535.717L1241.86 533.818L1243.67 530.32Z" fill="#709463"/>
<path d="M1053.7 922.281L1055.52 925.779L1058.82 927.701L1055.52 929.601L1053.7 933.098L1051.89 929.601L1048.6 927.701L1051.89 925.779L1053.7 922.281Z" fill="#709463"/>
<path d="M1195.11 985.979L1196.91 989.477L1200.22 991.399L1196.91 993.298L1195.11 996.796L1193.3 993.298L1189.99 991.399L1193.3 989.477L1195.11 985.979Z" fill="#709463"/>
<path d="M1208.09 1058.59L1209.91 1062.09L1213.21 1064.01L1209.91 1065.91L1208.09 1069.41L1206.29 1065.91L1202.97 1064.01L1206.29 1062.09L1208.09 1058.59Z" fill="#709463"/>
<path d="M950.975 1113.63L952.796 1117.13L956.094 1119.03L952.796 1120.95L950.975 1124.45L949.172 1120.95L945.874 1119.03L949.172 1117.13L950.975 1113.63Z" fill="#709463"/>
<path d="M742.214 1065.52L744.018 1069.02L747.333 1070.92L744.018 1072.84L742.214 1076.34L740.411 1072.84L737.095 1070.92L740.411 1069.02L742.214 1065.52Z" fill="#709463"/>
<path d="M999.657 1047.24L1001.48 1050.74L1004.78 1052.66L1001.48 1054.56L999.657 1058.06L997.853 1054.56L994.555 1052.66L997.853 1050.74L999.657 1047.24Z" fill="#709463"/>
<path d="M589.229 737.442L591.033 740.94L594.348 742.839L591.033 744.762L589.229 748.259L587.426 744.762L584.11 742.839L587.426 740.94L589.229 737.442Z" fill="#709463"/>
<path d="M484.755 765.84L486.558 769.337L489.874 771.26L486.558 773.159L484.755 776.657L482.934 773.159L479.636 771.26L482.934 769.337L484.755 765.84Z" fill="#709463"/>
<path d="M549.308 595.732L551.112 599.207L554.427 601.129L551.112 603.029L549.308 606.526L547.488 603.029L544.189 601.129L547.488 599.207L549.308 595.732Z" fill="#709463"/>
<path d="M581.139 513.551L582.942 517.048L586.257 518.971L582.942 520.87L581.139 524.368L579.335 520.87L576.02 518.971L579.335 517.048L581.139 513.551Z" fill="#709463"/>
<path d="M518.835 746.892L520.639 750.39L523.954 752.289L520.639 754.211L518.835 757.709L517.032 754.211L513.716 752.289L517.032 750.39L518.835 746.892Z" fill="#709463"/>
<path d="M184.522 832.247L186.343 835.745L189.641 837.644L186.343 839.567L184.522 843.064L182.718 839.567L179.403 837.644L182.718 835.745L184.522 832.247Z" fill="#709463"/>
<path d="M153.722 573.103L155.543 576.6L158.841 578.499L155.543 580.422L153.722 583.92L151.919 580.422L148.621 578.499L151.919 576.6L153.722 573.103Z" fill="#709463"/>
<path d="M226.35 310.089L228.171 313.586L231.469 315.509L228.171 317.408L226.35 320.906L224.546 317.408L221.248 315.509L224.546 313.586L226.35 310.089Z" fill="#709463"/>
<path d="M221.884 612.942L223.704 616.44L227.002 618.339L223.704 620.262L221.884 623.759L220.08 620.262L216.782 618.339L220.08 616.44L221.884 612.942Z" fill="#709463"/>
<path d="M322.459 800.051L324.263 803.548L327.578 805.471L324.263 807.37L322.459 810.868L320.656 807.37L317.34 805.471L320.656 803.548L322.459 800.051Z" fill="#709463"/>
<path d="M673.246 832.896L675.05 836.393L678.365 838.316L675.05 840.215L673.246 843.713L671.442 840.215L668.127 838.316L671.442 836.393L673.246 832.896Z" fill="#709463"/>
<path d="M425.096 933.979L426.917 937.476L430.215 939.375L426.917 941.298L425.096 944.772L423.292 941.298L419.977 939.375L423.292 937.476L425.096 933.979Z" fill="#709463"/>
<path d="M646.809 885.753L648.613 889.227L651.928 891.15L648.613 893.072L646.809 896.547L645.006 893.072L641.69 891.15L645.006 889.227L646.809 885.753Z" fill="#709463"/>
<path d="M998.592 766.141L1000.4 769.639L1003.71 771.561L1000.4 773.461L998.592 776.958L996.771 773.461L993.473 771.561L996.771 769.639L998.592 766.141Z" fill="#709463"/>
<path d="M1009.21 707.354L1011.01 710.851L1014.33 712.75L1011.01 714.673L1009.21 718.17L1007.4 714.673L1004.09 712.75L1007.4 710.851L1009.21 707.354Z" fill="#709463"/>
<path d="M1131.98 639.996L1133.78 643.494L1137.1 645.393L1133.78 647.316L1131.98 650.813L1130.17 647.316L1126.86 645.393L1130.17 643.494L1131.98 639.996Z" fill="#709463"/>
<path d="M1192.98 807.023L1194.78 810.521L1198.09 812.444L1194.78 814.343L1192.98 817.84L1191.17 814.343L1187.86 812.444L1191.17 810.521L1192.98 807.023Z" fill="#709463"/>
<path d="M1136.82 979.47L1138.62 982.967L1141.94 984.867L1138.62 986.766L1136.82 990.264L1135.02 986.766L1131.7 984.867L1135.02 982.967L1136.82 979.47Z" fill="#709463"/>
<path d="M1347.57 814.551L1349.38 818.048L1352.69 819.971L1349.38 821.87L1347.57 825.368L1345.75 821.87L1342.46 819.971L1345.75 818.048L1347.57 814.551Z" fill="#709463"/>
<path d="M1380.01 606.271L1381.81 609.769L1385.13 611.668L1381.81 613.59L1380.01 617.088L1378.2 613.59L1374.89 611.668L1378.2 609.769L1380.01 606.271Z" fill="#709463"/>
<path d="M980.263 556.587L982.067 560.085L985.382 562.008L982.067 563.907L980.263 567.404L978.46 563.907L975.144 562.008L978.46 560.085L980.263 556.587Z" fill="#709463"/>
<path d="M783.218 705.083L785.021 708.558L788.319 710.48L785.021 712.403L783.218 715.877L781.397 712.403L778.099 710.48L781.397 708.558L783.218 705.083Z" fill="#709463"/>
<path d="M931.564 461.944L933.368 465.441L936.684 467.341L933.368 469.263L931.564 472.761L929.761 469.263L926.446 467.341L929.761 465.441L931.564 461.944Z" fill="#709463"/>
<path d="M1180.13 344.485L1181.93 347.983L1185.25 349.882L1181.93 351.805L1180.13 355.302L1178.32 351.805L1175.01 349.882L1178.32 347.983L1180.13 344.485Z" fill="#709463"/>
<path d="M908.838 604.025L910.659 607.523L913.957 609.422L910.659 611.344L908.838 614.842L907.035 611.344L903.737 609.422L907.035 607.523L908.838 604.025Z" fill="#709463"/>
<path d="M884.532 664.294L886.335 667.791L889.634 669.691L886.335 671.613L884.532 675.088L882.711 671.613L879.413 669.691L882.711 667.791L884.532 664.294Z" fill="#709463"/>
<path d="M1117.58 443.599L1119.39 447.073L1122.7 448.996L1119.39 450.918L1117.58 454.416L1115.78 450.918L1112.46 448.996L1115.78 447.073L1117.58 443.599Z" fill="#709463"/>
<path d="M737.044 468.777L738.865 472.251L742.163 474.174L738.865 476.096L737.044 479.571L735.24 476.096L731.925 474.174L735.24 472.251L737.044 468.777Z" fill="#709463"/>
<path d="M788.079 389.028L789.9 392.526L793.198 394.448L789.9 396.348L788.079 399.845L786.275 396.348L782.977 394.448L786.275 392.526L788.079 389.028Z" fill="#709463"/>
<path d="M1116.76 325.19L1118.58 328.688L1121.88 330.587L1118.58 332.51L1116.76 336.007L1114.95 332.51L1111.66 330.587L1114.95 328.688L1116.76 325.19Z" fill="#709463"/>
<path d="M969.854 681.041L971.675 684.539L974.973 686.438L971.675 688.36L969.854 691.858L968.05 688.36L964.752 686.438L968.05 684.539L969.854 681.041Z" fill="#709463"/>
<path d="M1088.14 724.216L1089.94 727.714L1093.26 729.613L1089.94 731.513L1088.14 735.01L1086.34 731.513L1083.02 729.613L1086.34 727.714L1088.14 724.216Z" fill="#709463"/>
<path d="M1369.72 462.778L1371.52 466.275L1374.84 468.198L1371.52 470.097L1369.72 473.595L1367.91 470.097L1364.6 468.198L1367.91 466.275L1369.72 462.778Z" fill="#709463"/>
<path d="M1161.08 313.633L1162.88 317.13L1166.2 319.03L1162.88 320.952L1161.08 324.45L1159.26 320.952L1155.96 319.03L1159.26 317.13L1161.08 313.633Z" fill="#709463"/>
<path d="M910.436 410.152L912.239 413.65L915.538 415.549L912.239 417.472L910.436 420.969L908.615 417.472L905.317 415.549L908.615 413.65L910.436 410.152Z" fill="#709463"/>
<path d="M1672.01 394.809L1718.71 149.87H1710.47L1666.52 372.399L1591.08 466.08L1641.79 195.909H1629.9L1591.1 400.896L1549.33 204.181L1540.16 215.968L1586.62 424.496L1576.71 476.871L1502.44 591.939L1522.77 419.018L1496.21 121.539L1485.22 128.013L1506.29 424.911L1479.18 627.99L1396.89 755.536L1390.21 578.742L1455.93 488.076L1472.98 286.132L1462.99 283.31L1439.9 466.827L1387.81 515.135L1376.07 204.181H1319L1296.89 527.336L1296.07 539.343L1211.46 476.871L1193.14 190.016L1185.81 195.909L1201.38 499.281L1293.13 582.366L1277.8 806.499L1095.17 657.068L1073.11 522.494L1113.48 215.968H1106.15L1067.59 488.878L1016.67 178.202L1004.09 190.016L1059.97 550.798L984.381 441.456L936.774 195.909L927.607 219.509L976.141 453.824L1066.07 590.196L1080.32 682.273L1273.44 870.273L1250.88 1199.98L1413.8 1203L1398.95 809.985L1577.71 507.332L1672.01 394.809Z" fill="black"/>
<path d="M1687.99 394.809L1734.69 149.87H1726.45L1682.5 372.399L1607.05 466.08L1657.78 195.909H1645.86L1607.06 400.896L1565.29 204.181L1556.14 215.968L1602.6 424.496L1592.68 476.871L1518.43 591.939L1538.73 419.018L1512.19 121.539L1501.21 128.013L1522.25 424.911L1495.16 627.99L1412.86 755.536L1406.2 578.742L1471.9 488.076L1488.95 286.132L1478.96 283.31L1455.88 466.827L1403.79 515.135L1392.03 204.181H1334.97L1312.05 539.343L1227.43 476.871L1209.11 190.016L1201.8 195.909L1217.35 499.281L1309.1 582.366L1293.77 806.499L1111.15 657.068L1089.09 522.494L1129.45 215.968H1122.14L1083.58 488.878L1032.66 178.202L1020.06 190.016L1075.94 550.798L1000.35 441.456L952.741 195.909L943.59 219.509L992.107 453.824L1082.03 590.196L1096.3 682.273L1289.4 870.273L1266.85 1199.98L1429.77 1203L1414.92 809.985L1593.67 507.332L1687.99 394.809Z" fill="#4D5142"/>
<path d="M1679 394.781L1725.69 149.815H1717.45L1673.5 372.343L1598.05 466.025L1648.78 195.853H1636.88L1598.07 400.841L1556.3 204.126L1547.15 215.94L1593.6 424.441L1583.68 476.815L1509.43 591.911L1529.76 418.963L1503.2 121.483L1492.21 127.985L1513.27 424.883L1486.17 627.934L1403.88 755.481L1397.2 578.686L1462.9 488.02L1479.97 286.076L1469.98 283.254L1446.89 466.772L1394.8 515.107L1383.04 204.126H1325.99L1303.05 539.316L1218.43 476.815L1200.13 189.96L1192.8 195.853L1208.37 499.253L1300.12 582.338L1284.77 806.444L1102.15 657.04L1080.09 522.439L1120.47 215.94H1113.14L1074.58 488.823L1023.66 178.146L1011.08 189.96L1066.94 550.742L991.368 441.401L943.745 195.853L934.594 219.481L983.128 453.796L1073.05 590.168L1087.3 682.217L1280.41 870.217L1257.87 1199.93L1420.79 1202.97L1405.94 809.93L1584.69 507.304L1679 394.781Z" fill="#050505"/>
<path d="M1255.41 1200.07L1266.85 1199.98L1286.54 875.28L1277.83 867.422L1255.41 1200.07Z" fill="black"/>
<path d="M1285.13 806.5L1290.5 812.116L1304.68 584.276L1298.45 580.568L1285.13 806.5Z" fill="black"/>
<path d="M1290.5 812.115L1277.99 801.685L1279.31 784.337L1291.6 794.408L1290.5 812.115Z" fill="black"/>
<path d="M1336.14 154.989L1308.44 532.648L1307.74 542.47V542.636C1307.75 542.7 1307.75 542.766 1307.74 542.83L1296.44 534.53L1297.03 526.091L1303.89 530.131L1323.16 168.38L1336.14 154.989Z" fill="black"/>
<path d="M1307.74 542.469L1308.44 532.647C1308.32 535.939 1308.08 539.218 1307.74 542.469V542.469Z" fill="black"/>
<path d="M1286.54 1200.45L1308.51 867.422L1320.12 1201.67L1286.54 1200.45Z" fill="black"/>
<path d="M1349.72 1201.67C1349.72 1200.51 1355.52 918.773 1355.52 918.773L1402.22 1202.47L1349.72 1201.67Z" fill="black"/>
<path d="M1325.01 619.883L1304.68 693.478L1325.01 823.764L1320.12 696.328L1325.01 619.883Z" fill="black"/>
<path d="M1367.59 778.528L1359.33 889.197L1371.69 918.746L1367.59 778.528Z" fill="black"/>
<path d="M1333.23 211.846C1333.23 213.616 1330.14 562.612 1330.14 562.612L1353.61 221.502L1333.23 211.846Z" fill="black"/>
<path d="M1360.24 245.294L1368.48 561.864C1368.48 561.864 1377.46 265.824 1377.32 263.859C1377.18 261.895 1362.54 245.294 1362.54 245.294H1360.24Z" fill="black"/>
<path d="M1320.12 1201.67L1335.98 1202.47L1312.05 969.128L1320.12 1201.67Z" fill="#030303"/>
<path d="M1402.21 1202.47L1413.8 1203L1355.52 918.746L1400.07 1202.47H1402.21Z" fill="#030303"/>
<path d="M1325.01 823.764L1336.14 652.752L1325.01 619.883L1320.12 696.328L1325.01 823.764Z" fill="#030303"/>
<path d="M1330.14 562.584L1348.81 421.177L1341.87 320.44L1330.14 562.584Z" fill="#030303"/>
<path d="M1368.48 561.865L1381.3 378.098L1377.29 265.381L1368.48 561.865Z" fill="#030303"/>
<path d="M108.128 394.809L61.4312 149.87H69.6718L113.622 372.399L189.058 466.08L138.344 195.909H150.241L189.041 400.896L230.81 204.181L239.978 215.968L193.521 424.496L203.427 476.871L277.696 591.939L257.369 419.018L283.928 121.539L294.916 128.013L273.85 424.911L300.941 627.99L383.245 755.536L389.923 578.742L324.204 488.076L307.156 286.132L317.148 283.31L340.239 466.827L392.327 515.135L404.069 204.181H461.136L484.072 539.343L568.676 476.871L586.994 190.016L594.325 195.909L578.753 499.281L487.008 582.366L502.339 806.499L684.972 657.068L707.033 522.494L666.654 215.968H673.984L712.526 488.878L763.464 178.202L776.048 190.016L720.166 550.798L795.757 441.456L843.363 195.909L852.531 219.509L803.997 453.824L714.071 590.196L699.822 682.273L506.7 870.273L529.258 1199.98L366.334 1203L381.185 809.985L202.432 507.332L108.128 394.809Z" fill="black"/>
<path d="M123.545 394.809L76.8481 149.87H85.0888L129.039 372.399L204.492 466.08L153.761 195.909H165.658L204.475 400.896L246.245 204.181L255.395 215.968L208.939 424.496L218.844 476.871L293.113 591.939L272.786 419.018L299.345 121.539L310.333 128.013L289.267 424.911L316.376 627.99L398.662 755.536L405.34 578.742L339.638 488.076L322.573 286.132L332.565 283.31L355.656 466.827L407.744 515.135L419.486 204.181H476.553L499.489 539.343L584.11 476.871L602.411 190.016L609.742 195.909L594.171 499.281L502.425 582.366L517.756 806.499L700.389 657.068L722.45 522.494L682.071 215.968H689.401L727.961 488.878L778.881 178.202L791.465 190.016L735.6 550.798L811.174 441.456L858.798 195.909L867.948 219.509L819.414 453.824L729.488 590.196L715.239 682.273L522.134 870.273L544.675 1199.98L381.751 1203L396.602 809.985L217.849 507.332L123.545 394.809Z" fill="#4D5142"/>
<path d="M113.536 394.809L66.8394 149.87H75.08L119.03 372.399L194.483 466.08L143.752 195.909H155.649L194.466 400.896L236.236 204.181L245.386 215.968L198.93 424.496L208.853 476.871L283.104 591.939L262.795 419.018L289.336 121.539L300.324 128.013L279.276 424.911L306.367 627.99L388.653 755.536L395.331 578.742L329.629 488.076L312.582 286.132L322.556 283.31L345.647 466.827L397.735 515.135L409.495 204.181H466.561L489.48 539.343L574.101 476.871L592.419 190.016L599.733 195.909L584.179 499.281L492.433 582.366L507.764 806.499L690.38 657.068L712.441 522.494L672.062 215.968H679.392L717.952 488.878L768.872 178.202L781.473 190.016L725.591 550.798L801.165 441.456L848.789 195.909L857.939 219.509L809.405 453.824L719.497 590.196L705.23 682.273L512.125 870.273L534.684 1199.98L371.76 1203L386.61 809.985L207.84 507.332L113.536 394.809Z" fill="#050505"/>
<path d="M386.61 809.985L393.683 814.91L393.803 1202.61L366.334 1203L386.61 809.985Z" fill="black"/>
<path d="M398.078 506.17L404.79 512.866L411.658 318.088L399.983 316.898L398.078 506.17Z" fill="black"/>
<path d="M393.031 496.238L392.499 511.206L404.877 522.218L404.945 508.329L393.031 496.238Z" fill="black"/>
<path d="M384.206 729.86L383.382 749.033L393.58 766.076L394.576 741.148L384.206 729.86Z" fill="black"/>
<path d="M391.365 933.298L407.537 906.157L413.941 843.988V936.065L391.365 1015.94V933.298Z" fill="black"/>
<path d="M421.615 1202.09L429.822 924.252L434.697 1202.09H421.615Z" fill="black"/>
<path d="M448.432 1202.09L460.947 843.988L505.807 1200.9L448.432 1202.09Z" fill="black"/>
<path d="M425.392 254.923L419.898 652.17L433.633 467.408L441.41 489.265L438.663 537.074L448.741 463.286L425.392 254.923Z" fill="black"/>
<path d="M456.981 340.526L462.389 479.803L454.697 610.836L472.397 475.681L460.191 268.508L456.981 340.526Z" fill="black"/>
<path d="M434.698 655.712L434.32 855.802C434.32 855.802 444.621 755.453 444.621 755.757C444.621 756.061 434.698 655.712 434.698 655.712Z" fill="black"/>
<path d="M393.803 1202.61L411.503 1202.47L404.791 968.436L391.365 1015.94L393.803 1202.61Z" fill="#030303"/>
<path d="M505.807 1200.9L518.786 1200.48L486.287 952.001L467.763 898.244L505.807 1200.9Z" fill="#030303"/>
<path d="M413.941 843.989L393.683 814.911L393.803 929.204L407.538 906.158L413.941 843.989Z" fill="#030303"/>
<path d="M444.621 755.757L439.608 705.292L456.982 764.306L434.32 855.802L444.621 755.757Z" fill="#030303"/>
<path d="M386.61 809.985L398.404 823.764L387.211 1202.61L366.334 1203" fill="black"/>
<path d="M0 0V156.21V236.085V255.48L12.4296 273.741L50.6112 230.497L46.3879 224.299L60.4313 214.975L37.5463 173.53L73.2557 156.21L66.8349 214.975L106.218 220.73L113.532 180.612L142.837 193.201L108.965 252.603L142.837 282.124L159.319 234.896L191.371 252.603V230.192L206.926 231.354V245.52L238.978 251.441V214.975L251.803 193.588L270.104 214.975L287.512 193.588L272.851 177.071L291.169 156.21L317.728 184.154L293.916 214.975L324.131 246.71L339.703 226.651L367.171 251.441L350.69 273.741L379.979 301.021L410.194 260.875L425.766 278.582L448.651 250.251L434.006 228.615L456.891 207.754L483.45 238.437L499.931 214.975L489.854 203.023L499.931 192.399L524.653 214.975L540.224 198.319L561.272 221.92L543.881 250.251L566.766 273.741L593.325 237.275L612.553 253.792L616.21 301.021H643.679L650.099 251.441L672.074 238.437L684.882 263.227L711.441 237.275L704.11 210.106L735.253 194.778V228.615H774.619V187.695L831.393 204.213L812.165 260.875L850.621 283.314L863.429 251.441L884.494 260.875L895.481 325.811L925.697 317.538V257.334L951.329 260.875V277.393L993.459 284.476L998.953 264.417L1044.72 267.958V279.772L1085.93 282.124V266.768L1119.82 226.651L1149.1 258.524L1132.62 289.207L1174.75 325.811L1201.29 282.124L1229.69 271.5L1238.84 302.183L1283.7 283.314V257.334L1319.41 241.01L1335.89 255.48L1378.02 241.01L1363.36 202.414L1397.25 191.237L1389.92 218.378L1426.54 225.461L1440.27 191.237L1483.31 202.414L1466.83 255.48L1519.02 270.31L1536.41 212.485L1559.32 213.647L1565.72 241.01L1608.76 227.813L1602.34 202.414L1635.3 185.316V208.944L1683.83 202.414V180.612L1715.15 178.233V192.565L1758 255.48V193.588V156.21V0H0Z" fill="black"/>
</svg>
