<svg width="521" height="612" viewBox="0 0 521 612" fill="none" xmlns="http://www.w3.org/2000/svg">
<rect x="41.3503" y="598.091" width="115.778" height="13.909" fill="#444444"/>
<rect x="157.126" y="584.181" width="107.508" height="13.909" fill="#444444"/>
<rect x="264.634" y="598.091" width="115.778" height="13.909" fill="#444444"/>
<rect x="380.413" y="584.181" width="41.3493" height="13.909" fill="#444444"/>
<rect x="421.76" y="598.091" width="74.4288" height="13.909" fill="#444444"/>
<rect width="8.26987" height="333.816" transform="matrix(-1 0 0 1 16.5388 83.4609)" fill="#444444"/>
<rect x="16.5388" y="417.279" width="8.26987" height="166.908" fill="#444444"/>
<rect x="496.192" y="500.73" width="8.26987" height="97.3629" fill="#444444"/>
<rect x="504.462" y="222.552" width="8.26987" height="278.18" fill="#444444"/>
<rect x="496.192" y="180.827" width="8.26987" height="41.727" fill="#444444"/>
<rect x="487.921" y="139.097" width="8.26987" height="41.727" fill="#444444"/>
<rect x="496.192" y="125.186" width="16.5397" height="13.909" fill="#444444"/>
<rect x="512.73" y="41.731" width="8.26987" height="83.4539" fill="#444444"/>
<rect x="504.462" y="27.8252" width="8.26987" height="13.909" fill="#444444"/>
<rect x="363.872" y="13.915" width="140.588" height="13.909" fill="#444444"/>
<rect x="305.984" y="27.8252" width="57.8891" height="13.909" fill="#444444"/>
<rect x="74.4268" y="13.915" width="231.556" height="13.909" fill="#444444"/>
<rect x="49.6179" y="27.8252" width="24.8096" height="13.909" fill="#444444"/>
<rect x="41.3503" y="41.731" width="8.26987" height="27.818" fill="#444444"/>
<rect x="16.5388" y="69.5508" width="24.8096" height="13.909" fill="#444444"/>
<rect x="24.8066" y="584.181" width="16.5397" height="13.909" fill="#444444"/>
<rect x="74.4268" y="27.8252" width="231.556" height="556.36" fill="#444444"/>
<rect x="49.6179" y="41.731" width="24.8096" height="542.451" fill="#444444"/>
<rect x="24.8066" y="83.4609" width="24.8096" height="333.816" fill="#444444"/>
<rect x="16.5388" y="83.4609" width="8.26987" height="333.816" fill="#444444"/>
<rect x="496.192" y="222.552" width="8.26987" height="278.18" fill="#444444"/>
<rect x="496.192" y="41.731" width="16.5397" height="83.4539" fill="#444444"/>
<rect x="24.8066" y="417.279" width="24.8096" height="166.908" fill="#444444"/>
<rect x="41.3503" y="584.181" width="115.778" height="13.909" fill="#444444"/>
<rect x="264.634" y="584.181" width="115.778" height="13.909" fill="#444444"/>
<rect x="421.76" y="222.552" width="74.4288" height="375.543" fill="#444444"/>
<rect x="305.984" y="41.731" width="115.778" height="542.451" fill="#444444"/>
<rect x="363.872" y="27.8252" width="140.588" height="13.909" fill="#444444"/>
<rect x="487.921" y="180.827" width="8.26987" height="41.727" fill="#444444"/>
<rect x="487.921" y="41.731" width="8.26987" height="97.3629" fill="#444444"/>
<rect x="421.76" y="41.731" width="66.1589" height="180.817" fill="#444444"/>
<rect x="33.0813" y="584.176" width="115.778" height="13.909" fill="#239B3F"/>
<rect x="148.857" y="570.266" width="107.508" height="13.909" fill="#239B3F"/>
<rect x="264.636" y="584.176" width="107.508" height="13.909" fill="#239B3F"/>
<rect x="372.144" y="570.266" width="41.3493" height="13.909" fill="#239B3F"/>
<rect x="421.762" y="584.176" width="66.1589" height="13.909" fill="#239B3F"/>
<rect width="8.26987" height="333.816" transform="matrix(-1 0 0 1 8.27002 69.5454)" fill="#239B3F"/>
<rect x="8.27002" y="403.364" width="8.26987" height="166.908" fill="#239B3F"/>
<rect x="487.92" y="486.814" width="8.26987" height="97.3629" fill="#239B3F"/>
<rect x="496.194" y="208.637" width="8.26987" height="278.18" fill="#239B3F"/>
<rect x="487.92" y="166.911" width="8.26987" height="41.727" fill="#239B3F"/>
<rect x="479.653" y="125.181" width="8.26987" height="41.727" fill="#239B3F"/>
<rect x="487.92" y="111.271" width="16.5397" height="13.909" fill="#239B3F"/>
<rect x="504.461" y="27.8154" width="8.26987" height="83.4539" fill="#239B3F"/>
<rect x="496.194" y="13.9097" width="8.26987" height="13.909" fill="#239B3F"/>
<rect x="355.603" width="140.588" height="13.909" fill="#239B3F"/>
<rect x="297.715" y="13.9097" width="57.8891" height="13.909" fill="#239B3F"/>
<rect x="66.1578" width="231.556" height="13.909" fill="#239B3F"/>
<rect x="41.3491" y="13.9097" width="24.8096" height="13.909" fill="#239B3F"/>
<rect x="33.0813" y="27.8154" width="8.26987" height="27.818" fill="#239B3F"/>
<rect x="8.27002" y="55.6357" width="24.8096" height="13.909" fill="#239B3F"/>
<rect x="16.5376" y="570.266" width="16.5397" height="13.909" fill="#239B3F"/>
<rect x="66.158" y="13.9097" width="231.556" height="556.36" fill="#239B3F"/>
<rect x="41.3491" y="27.8154" width="24.8096" height="542.451" fill="#239B3F"/>
<rect x="16.5376" y="69.5454" width="24.8096" height="333.816" fill="#239B3F"/>
<rect x="8.27002" y="69.5454" width="8.26987" height="333.816" fill="#239B3F"/>
<rect x="487.92" y="208.637" width="8.26987" height="278.18" fill="#239B3F"/>
<rect x="487.92" y="27.8154" width="16.5397" height="83.4539" fill="#239B3F"/>
<rect x="16.5376" y="403.364" width="24.8096" height="166.908" fill="#239B3F"/>
<rect x="33.0813" y="570.266" width="115.778" height="13.909" fill="#239B3F"/>
<rect x="256.366" y="570.266" width="115.778" height="13.909" fill="#239B3F"/>
<rect x="413.491" y="208.637" width="74.4288" height="375.543" fill="#239B3F"/>
<rect x="297.715" y="27.8154" width="115.778" height="542.451" fill="#239B3F"/>
<rect x="355.603" y="13.9097" width="140.588" height="13.909" fill="#239B3F"/>
<rect x="479.653" y="166.911" width="8.26987" height="41.727" fill="#239B3F"/>
<rect x="479.653" y="27.8154" width="8.26987" height="97.3629" fill="#239B3F"/>
<rect x="413.491" y="27.8154" width="66.1589" height="180.817" fill="#239B3F"/>
<rect x="33.0813" y="55.6357" width="8.26987" height="13.909" fill="#239B3F"/>
<rect x="471.382" y="166.911" width="8.26987" height="278.18" fill="#255706"/>
<rect x="471.382" y="166.911" width="8.26987" height="278.18" fill="#255706"/>
<rect x="41.3491" y="166.942" width="8.26987" height="278.18" fill="#255706"/>
<rect x="49.6176" y="125.186" width="8.26987" height="69.5449" transform="rotate(-180 49.6176 125.186)" fill="#255706"/>
<rect x="82.6968" y="55.6396" width="13.909" height="33.0795" transform="rotate(90 82.6968 55.6396)" fill="#255706"/>
<rect x="49.6172" y="83.4609" width="8.26987" height="13.909" fill="#255706"/>
<rect x="57.8906" y="69.5508" width="8.26987" height="13.909" fill="#255706"/>
<rect x="66.158" y="97.3657" width="8.26987" height="13.909" fill="#255706"/>
<rect width="8.26987" height="69.5449" transform="matrix(-1 0 0 1 49.6176 486.811)" fill="#255706"/>
<rect width="13.909" height="33.0795" transform="matrix(0 -1 -1 0 82.6968 556.357)" fill="#255706"/>
<rect width="8.26987" height="13.909" transform="matrix(1 0 0 -1 49.6172 528.542)" fill="#255706"/>
<rect width="8.26987" height="13.909" transform="matrix(1 0 0 -1 57.8906 542.452)" fill="#255706"/>
<rect width="8.26987" height="13.909" transform="matrix(1 0 0 -1 66.158 514.632)" fill="#255706"/>
<rect x="471.384" y="486.811" width="8.26987" height="69.5449" fill="#255706"/>
<rect x="438.305" y="556.357" width="13.909" height="33.0795" transform="rotate(-90 438.305 556.357)" fill="#255706"/>
<rect x="471.385" y="528.542" width="8.26987" height="13.909" transform="rotate(180 471.385 528.542)" fill="#255706"/>
<rect x="463.111" y="542.452" width="8.26987" height="13.909" transform="rotate(180 463.111 542.452)" fill="#255706"/>
<rect x="454.844" y="514.632" width="8.26987" height="13.909" transform="rotate(180 454.844 514.632)" fill="#255706"/>
<rect width="8.26987" height="69.5449" transform="matrix(1 0 0 -1 471.384 125.186)" fill="#255706"/>
<rect width="13.909" height="33.0795" transform="matrix(0 1 1 0 438.305 55.6396)" fill="#255706"/>
<rect width="8.26987" height="13.909" transform="matrix(-1 0 0 1 471.385 83.4609)" fill="#255706"/>
<rect width="8.26987" height="13.909" transform="matrix(-1 0 0 1 463.111 69.5508)" fill="#255706"/>
<rect width="8.26987" height="13.909" transform="matrix(-1 0 0 1 454.844 97.3657)" fill="#255706"/>
<rect width="8.26987" height="278.18" transform="matrix(1 0 0 -1 496.194 486.814)" fill="#26541B"/>
<rect x="496.194" y="584.176" width="8.26987" height="97.3629" transform="rotate(180 496.194 584.176)" fill="#26541B"/>
<rect x="487.92" y="598.086" width="66.1589" height="13.909" transform="rotate(180 487.92 598.086)" fill="#26541B"/>
<rect x="421.762" y="584.176" width="49.6192" height="13.909" transform="rotate(180 421.762 584.176)" fill="#26541B"/>
<rect x="372.144" y="598.086" width="107.508" height="13.909" transform="rotate(180 372.144 598.086)" fill="#26541B"/>
<rect x="264.636" y="584.176" width="115.778" height="13.909" transform="rotate(180 264.636 584.176)" fill="#26541B"/>
<rect x="148.857" y="598.086" width="115.778" height="13.909" transform="rotate(180 148.857 598.086)" fill="#26541B"/>
<rect x="33.0813" y="584.176" width="16.5397" height="13.909" transform="rotate(180 33.0813 584.176)" fill="#26541B"/>
<rect x="16.5376" y="570.271" width="8.26987" height="166.908" transform="rotate(180 16.5376 570.271)" fill="#26541B"/>
<rect x="8.27002" y="403.364" width="8.26987" height="333.816" transform="rotate(180 8.27002 403.364)" fill="#26541B"/>
<rect width="8.26987" height="27.818" transform="matrix(1 0 0 -1 487.92 194.727)" fill="#26541B"/>
<rect width="8.26987" height="41.727" transform="matrix(1 0 0 -1 479.653 166.911)" fill="#26541B"/>
<rect width="8.26987" height="13.909" transform="matrix(1 0 0 -1 496.194 125.181)" fill="#26541B"/>
<rect width="8.26987" height="27.818" transform="matrix(1 0 0 -1 496.194 41.7251)" fill="#26541B"/>
<rect width="8.26987" height="27.818" transform="matrix(1 0 0 -1 487.92 27.8203)" fill="#26541B"/>
<rect width="8.26987" height="83.4539" transform="matrix(1 0 0 -1 504.461 111.271)" fill="#26541B"/>
<rect x="8.27002" y="55.6406" width="24.8096" height="13.909" fill="#26541B"/>
<rect x="33.0813" y="27.8203" width="8.26987" height="27.818" fill="#26541B"/>
<rect x="41.3491" y="13.9097" width="24.8096" height="13.909" fill="#26541B"/>
<rect x="66.1578" width="231.556" height="13.909" fill="#26541B"/>
<rect x="297.715" y="13.9097" width="57.8891" height="13.909" fill="#26541B"/>
<rect x="355.603" width="132.318" height="13.909" fill="#26541B"/>
<rect x="487.92" y="375.544" width="8.26987" height="27.818" fill="#26541B"/>
<rect x="487.92" y="250.362" width="8.26987" height="13.909" fill="#26541B"/>
<rect x="487.92" y="55.6406" width="16.5397" height="13.909" fill="#26541B"/>
<rect x="496.194" y="69.5454" width="8.26987" height="13.909" fill="#26541B"/>
<rect x="380.415" y="13.9097" width="57.8891" height="13.909" fill="#26541B"/>
<rect x="396.953" y="27.8203" width="16.5397" height="13.909" fill="#26541B"/>
<rect x="206.745" y="13.9097" width="16.5397" height="13.909" fill="#26541B"/>
<rect x="215.016" y="27.8203" width="8.26987" height="13.909" fill="#26541B"/>
<rect x="264.636" y="13.9097" width="24.8096" height="13.909" fill="#26541B"/>
<rect x="66.158" y="13.9097" width="8.26987" height="13.909" fill="#26541B"/>
<rect x="66.158" y="27.8203" width="16.5397" height="13.909" fill="#26541B"/>
<rect x="8.27002" y="69.5454" width="8.26987" height="97.3629" fill="#26541B"/>
<rect x="16.5376" y="69.5454" width="8.26987" height="55.636" fill="#26541B"/>
<rect x="8.27002" y="278.183" width="8.26987" height="69.5449" fill="#26541B"/>
<rect x="16.5376" y="333.818" width="8.26987" height="41.727" fill="#26541B"/>
<rect x="8.27002" y="375.544" width="8.26987" height="27.818" fill="#26541B"/>
<rect x="16.5376" y="417.269" width="8.26987" height="97.3629" fill="#26541B"/>
<rect x="16.5376" y="528.545" width="8.26987" height="13.909" fill="#26541B"/>
<rect x="66.158" y="570.271" width="24.8096" height="13.909" fill="#26541B"/>
<rect x="99.2397" y="570.271" width="16.5397" height="13.909" fill="#26541B"/>
<rect x="198.478" y="556.36" width="33.0795" height="13.909" fill="#26541B"/>
<rect x="314.256" y="570.271" width="8.26987" height="13.909" fill="#26541B"/>
<rect x="347.333" y="570.271" width="16.5397" height="13.909" fill="#26541B"/>
<rect x="396.953" y="556.36" width="16.5397" height="13.909" fill="#26541B"/>
<rect x="454.844" y="570.271" width="8.26987" height="13.909" fill="#26541B"/>
</svg>
