<svg width="212" height="87" viewBox="0 0 212 87" fill="none" xmlns="http://www.w3.org/2000/svg">
<rect x="57.0771" y="69.6001" width="8.15385" height="8.7" fill="#7E851B"/>
<rect x="65.2307" y="69.6001" width="8.15385" height="8.7" fill="#7E851B"/>
<rect x="73.3848" y="69.6001" width="8.15385" height="8.7" fill="#7E851B"/>
<rect x="81.5383" y="69.6001" width="8.15385" height="8.7" fill="#7E851B"/>
<rect x="89.6924" y="69.6001" width="8.15385" height="8.7" fill="#7E851B"/>
<rect x="97.8459" y="69.6001" width="8.15385" height="8.7" fill="#7E851B"/>
<rect x="106" y="69.6001" width="8.15385" height="8.7" fill="#7E851B"/>
<rect x="114.154" y="69.6001" width="8.15385" height="8.7" fill="#7E851B"/>
<rect x="122.308" y="69.6001" width="8.15385" height="8.7" fill="#7E851B"/>
<rect x="130.462" y="69.6001" width="8.15385" height="8.7" fill="#7E851B"/>
<rect x="138.615" y="69.6001" width="8.15385" height="8.7" fill="#7E851B"/>
<rect x="146.769" y="69.6001" width="8.15385" height="8.7" fill="#7E851B"/>
<rect x="154.923" y="69.6001" width="8.15385" height="8.7" fill="#7E851B"/>
<rect x="163.077" y="69.6001" width="8.15385" height="8.7" fill="#7E851B"/>
<rect x="179.385" y="69.6001" width="8.15385" height="8.7" fill="#7E851B"/>
<rect x="171.231" y="69.6001" width="8.15385" height="8.7" fill="#7E851B"/>
<rect x="187.538" y="69.6001" width="8.15385" height="8.7" fill="#7E851B"/>
<rect x="195.692" y="60.8999" width="8.15385" height="8.7" fill="#7E851B"/>
<rect x="203.846" y="52.1997" width="8.15385" height="8.7" fill="#7E851B"/>
<rect x="203.846" y="43.5" width="8.15385" height="8.7" fill="#7E851B"/>
<rect x="203.846" y="34.8003" width="8.15385" height="8.7" fill="#7E851B"/>
<rect x="203.846" y="26.1001" width="8.15385" height="8.7" fill="#7E851B"/>
<rect x="203.846" y="17.3999" width="8.15385" height="8.7" fill="#7E851B"/>
<rect x="195.692" y="8.69971" width="8.15385" height="8.7" fill="#7E851B"/>
<rect x="8.15405" y="17.3999" width="8.15385" height="8.7" fill="#7E851B"/>
<path d="M8.15405 26.1001H16.3079V34.8001H8.15405V26.1001Z" fill="#7E851B"/>
<path d="M8.15405 34.8001H16.3079V43.5001H8.15405V34.8001Z" fill="#7E851B"/>
<path d="M8.15405 43.5001H16.3079V52.2001H8.15405V43.5001Z" fill="#7E851B"/>
<path d="M8.15405 52.2001H16.3079V60.9001H8.15405V52.2001Z" fill="#7E851B"/>
<rect x="16.3076" y="8.69971" width="8.15385" height="8.7" fill="#7E851B"/>
<path d="M24.4617 0H32.6155V8.7H24.4617V0Z" fill="#7E851B"/>
<rect x="32.6152" width="8.15385" height="8.7" fill="#7E851B"/>
<rect x="32.6152" y="69.6001" width="8.15385" height="8.7" fill="#7E851B"/>
<rect x="40.7693" y="69.6001" width="8.15385" height="8.7" fill="#7E851B"/>
<rect x="24.4617" y="69.6001" width="8.15385" height="8.7" fill="#7E851B"/>
<rect x="16.3076" y="60.8999" width="8.15385" height="8.7" fill="#7E851B"/>
<rect x="48.9229" y="69.6001" width="8.15385" height="8.7" fill="#7E851B"/>
<rect x="57.0771" width="8.15385" height="8.7" fill="#7E851B"/>
<rect x="65.2307" width="8.15385" height="8.7" fill="#7E851B"/>
<rect x="73.3848" width="8.15385" height="8.7" fill="#7E851B"/>
<rect x="81.5383" width="8.15385" height="8.7" fill="#7E851B"/>
<rect x="89.6924" width="8.15385" height="8.7" fill="#7E851B"/>
<rect x="97.8459" width="8.15385" height="8.7" fill="#7E851B"/>
<rect x="106" width="8.15385" height="8.7" fill="#7E851B"/>
<rect x="114.154" width="8.15385" height="8.7" fill="#7E851B"/>
<rect x="122.308" width="8.15385" height="8.7" fill="#7E851B"/>
<rect x="130.462" width="8.15385" height="8.7" fill="#7E851B"/>
<rect x="138.615" width="8.15385" height="8.7" fill="#7E851B"/>
<rect x="146.769" width="8.15385" height="8.7" fill="#7E851B"/>
<rect x="154.923" width="8.15385" height="8.7" fill="#7E851B"/>
<rect x="163.077" width="8.15385" height="8.7" fill="#7E851B"/>
<rect x="171.231" width="8.15385" height="8.7" fill="#7E851B"/>
<rect x="179.385" width="8.15385" height="8.7" fill="#7E851B"/>
<rect x="187.538" width="8.15385" height="8.7" fill="#7E851B"/>
<rect x="48.9229" width="8.15385" height="8.7" fill="#7E851B"/>
<rect x="40.7693" width="8.15385" height="8.7" fill="#7E851B"/>
<rect x="40.7693" y="17.3999" width="8.15385" height="8.7" fill="#FBF5FA"/>
<rect x="48.9229" y="17.3999" width="8.15385" height="8.7" fill="#FBF5FA"/>
<rect x="65.2307" y="17.3999" width="8.15385" height="8.7" fill="#FBF5FA"/>
<rect x="73.3848" y="17.3999" width="8.15385" height="8.7" fill="#FBF5FA"/>
<rect x="73.3848" y="26.1001" width="8.15385" height="8.7" fill="#FBF5FA"/>
<rect x="73.3848" y="34.8003" width="8.15385" height="8.7" fill="#FBF5FA"/>
<rect x="73.3848" y="43.5" width="8.15385" height="8.7" fill="#FBF5FA"/>
<rect x="73.3848" y="52.1997" width="8.15385" height="8.7" fill="#FBF5FA"/>
<rect x="97.8459" y="43.5" width="8.15385" height="8.7" fill="#FBF5FA"/>
<rect x="97.8459" y="34.8003" width="8.15385" height="8.7" fill="#FBF5FA"/>
<rect x="97.8459" y="26.1001" width="8.15385" height="8.7" fill="#FBF5FA"/>
<rect x="114.154" y="17.3999" width="8.15385" height="8.7" fill="#FBF5FA"/>
<rect x="114.154" y="17.3999" width="8.15385" height="8.7" fill="#FBF5FA"/>
<rect x="106" y="17.3999" width="8.15385" height="8.7" fill="#FBF5FA"/>
<rect x="114.154" y="26.1001" width="8.15385" height="8.7" fill="#FBF5FA"/>
<rect x="114.154" y="34.8003" width="8.15385" height="8.7" fill="#FBF5FA"/>
<rect x="114.154" y="43.5" width="8.15385" height="8.7" fill="#FBF5FA"/>
<rect x="114.154" y="52.1997" width="8.15385" height="8.7" fill="#FBF5FA"/>
<path d="M130.462 17.3999H138.616V26.0999H130.462V17.3999Z" fill="#FBF5FA"/>
<path d="M130.462 26.1001H138.616V34.8001H130.462V26.1001Z" fill="#FBF5FA"/>
<path d="M130.462 34.8003H138.616V43.5003H130.462V34.8003Z" fill="#FBF5FA"/>
<path d="M130.462 43.5H138.616V52.2H130.462V43.5Z" fill="#FBF5FA"/>
<path d="M130.462 52.1997H138.616V60.8997H130.462V52.1997Z" fill="#FBF5FA"/>
<path d="M138.615 17.3999H146.769V26.0999H138.615V17.3999Z" fill="#FBF5FA"/>
<path d="M146.769 26.1001H154.923V34.8001H146.769V26.1001Z" fill="#FBF5FA"/>
<path d="M146.769 26.1001H154.923V34.8001H146.769V26.1001Z" fill="#FBF5FA"/>
<path d="M146.769 17.3999H154.923V26.0999H146.769V17.3999Z" fill="#FBF5FA"/>
<path d="M138.615 43.5H146.769V52.2H138.615V43.5Z" fill="#FBF5FA"/>
<path d="M146.769 34.8003H154.923V43.5003H146.769V34.8003Z" fill="#FBF5FA"/>
<path d="M146.769 52.1997H154.923V60.8997H146.769V52.1997Z" fill="#FBF5FA"/>
<path d="M163.077 17.3999H171.231V26.0999H163.077V17.3999Z" fill="#FBF5FA"/>
<path d="M171.231 17.3999H179.385V26.0999H171.231V17.3999Z" fill="#FBF5FA"/>
<path d="M171.231 26.1001H179.385V34.8001H171.231V26.1001Z" fill="#FBF5FA"/>
<path d="M171.231 34.8003H179.385V43.5003H171.231V34.8003Z" fill="#FBF5FA"/>
<path d="M171.231 43.5H179.385V52.2H171.231V43.5Z" fill="#FBF5FA"/>
<path d="M171.231 52.1997H179.385V60.8997H171.231V52.1997Z" fill="#FBF5FA"/>
<path d="M179.385 17.3999H187.539V26.0999H179.385V17.3999Z" fill="#FBF5FA"/>
<rect x="106" y="43.5" width="8.15385" height="8.7" fill="#FBF5FA"/>
<rect x="81.5383" y="17.3999" width="8.15385" height="8.7" fill="#FBF5FA"/>
<rect x="32.6152" y="17.3999" width="8.15385" height="8.7" fill="#FBF5FA"/>
<rect x="32.6152" y="26.1001" width="8.15385" height="8.7" fill="#FBF5FA"/>
<rect x="32.6152" y="34.8003" width="8.15385" height="8.7" fill="#FBF5FA"/>
<rect x="40.7693" y="34.8003" width="8.15385" height="8.7" fill="#FBF5FA"/>
<rect x="48.9229" y="34.8003" width="8.15385" height="8.7" fill="#FBF5FA"/>
<path d="M48.9229 43.5H57.0767V52.2H48.9229V43.5Z" fill="#FBF5FA"/>
<rect x="48.9229" y="52.1997" width="8.15385" height="8.7" fill="#FBF5FA"/>
<rect x="40.7693" y="52.1997" width="8.15385" height="8.7" fill="#FBF5FA"/>
<rect x="32.6152" y="52.1997" width="8.15385" height="8.7" fill="#FBF5FA"/>
<rect x="40.7693" y="26.1001" width="8.15385" height="8.7" fill="#BDBA25"/>
<rect x="48.9229" y="26.1001" width="8.15385" height="8.7" fill="#BDBA25"/>
<rect x="106" y="26.1001" width="8.15385" height="8.7" fill="#BDBA25"/>
<rect x="106" y="34.8003" width="8.15385" height="8.7" fill="#BDBA25"/>
<rect x="106" y="52.1997" width="8.15385" height="8.7" fill="#BDBA25"/>
<rect x="24.4617" y="8.69971" width="8.15385" height="8.7" fill="#BDBA25"/>
<rect x="24.4617" y="60.8999" width="8.15385" height="8.7" fill="#BDBA25"/>
<rect x="24.4617" y="52.1997" width="8.15385" height="8.7" fill="#BDBA25"/>
<rect x="24.4617" y="43.5" width="8.15385" height="8.7" fill="#BDBA25"/>
<rect x="32.6152" y="43.5" width="8.15385" height="8.7" fill="#BDBA25"/>
<rect x="24.4617" y="34.8003" width="8.15385" height="8.7" fill="#BDBA25"/>
<rect x="24.4617" y="26.1001" width="8.15385" height="8.7" fill="#BDBA25"/>
<rect x="24.4617" y="17.3999" width="8.15385" height="8.7" fill="#BDBA25"/>
<rect x="16.3076" y="52.1997" width="8.15385" height="8.7" fill="#BDBA25"/>
<rect x="16.3076" y="43.5" width="8.15385" height="8.7" fill="#BDBA25"/>
<rect x="16.3076" y="34.8003" width="8.15385" height="8.7" fill="#BDBA25"/>
<rect x="16.3076" y="26.1001" width="8.15385" height="8.7" fill="#BDBA25"/>
<rect x="16.3076" y="17.3999" width="8.15385" height="8.7" fill="#BDBA25"/>
<rect x="187.538" y="52.1997" width="8.15385" height="8.7" fill="#BDBA25"/>
<rect x="187.538" y="43.5" width="8.15385" height="8.7" fill="#BDBA25"/>
<rect x="187.538" y="34.8003" width="8.15385" height="8.7" fill="#BDBA25"/>
<rect x="187.538" y="26.1001" width="8.15385" height="8.7" fill="#BDBA25"/>
<rect x="179.385" y="52.1997" width="8.15385" height="8.7" fill="#BDBA25"/>
<rect x="171.231" y="60.8999" width="8.15385" height="8.7" fill="#BDBA25"/>
<rect x="179.385" y="43.5" width="8.15385" height="8.7" fill="#BDBA25"/>
<rect x="179.385" y="34.8003" width="8.15385" height="8.7" fill="#BDBA25"/>
<rect x="179.385" y="26.1001" width="8.15385" height="8.7" fill="#BDBA25"/>
<rect x="163.077" y="52.1997" width="8.15385" height="8.7" fill="#BDBA25"/>
<rect x="163.077" y="43.5" width="8.15385" height="8.7" fill="#BDBA25"/>
<rect x="163.077" y="34.8003" width="8.15385" height="8.7" fill="#BDBA25"/>
<rect x="163.077" y="26.1001" width="8.15385" height="8.7" fill="#BDBA25"/>
<rect x="81.5383" y="52.1997" width="8.15385" height="8.7" fill="#BDBA25"/>
<rect x="81.5383" y="43.5" width="8.15385" height="8.7" fill="#BDBA25"/>
<rect x="81.5383" y="34.8003" width="8.15385" height="8.7" fill="#BDBA25"/>
<rect x="81.5383" y="26.1001" width="8.15385" height="8.7" fill="#BDBA25"/>
<rect x="65.2307" y="52.1997" width="8.15385" height="8.7" fill="#BDBA25"/>
<rect x="65.2307" y="43.5" width="8.15385" height="8.7" fill="#BDBA25"/>
<rect x="65.2307" y="34.8003" width="8.15385" height="8.7" fill="#BDBA25"/>
<rect x="65.2307" y="26.1001" width="8.15385" height="8.7" fill="#BDBA25"/>
<rect x="187.538" y="17.3999" width="8.15385" height="8.7" fill="#BDBA25"/>
<rect x="57.0771" y="52.1997" width="8.15385" height="8.7" fill="#BDBA25"/>
<rect x="57.0771" y="43.5" width="8.15385" height="8.7" fill="#BDBA25"/>
<rect x="57.0771" y="34.8003" width="8.15385" height="8.7" fill="#BDBA25"/>
<rect x="57.0771" y="26.1001" width="8.15385" height="8.7" fill="#BDBA25"/>
<rect x="57.0771" y="17.3999" width="8.15385" height="8.7" fill="#BDBA25"/>
<rect x="89.6924" y="52.1997" width="8.15385" height="8.7" fill="#BDBA25"/>
<rect x="89.6924" y="43.5" width="8.15385" height="8.7" fill="#BDBA25"/>
<rect x="89.6924" y="34.8003" width="8.15385" height="8.7" fill="#BDBA25"/>
<rect x="89.6924" y="26.1001" width="8.15385" height="8.7" fill="#BDBA25"/>
<rect x="89.6924" y="17.3999" width="8.15385" height="8.7" fill="#BDBA25"/>
<rect x="122.308" y="52.1997" width="8.15385" height="8.7" fill="#BDBA25"/>
<rect x="122.308" y="43.5" width="8.15385" height="8.7" fill="#BDBA25"/>
<rect x="122.308" y="34.8003" width="8.15385" height="8.7" fill="#BDBA25"/>
<rect x="122.308" y="26.1001" width="8.15385" height="8.7" fill="#BDBA25"/>
<rect x="122.308" y="17.3999" width="8.15385" height="8.7" fill="#BDBA25"/>
<rect x="138.615" y="26.1001" width="8.15385" height="8.7" fill="#BDBA25"/>
<rect x="138.615" y="34.8003" width="8.15385" height="8.7" fill="#BDBA25"/>
<rect x="138.615" y="52.1997" width="8.15385" height="8.7" fill="#BDBA25"/>
<rect x="154.923" y="52.1997" width="8.15385" height="8.7" fill="#BDBA25"/>
<rect x="146.769" y="43.5" width="8.15385" height="8.7" fill="#BDBA25"/>
<rect x="154.923" y="34.8003" width="8.15385" height="8.7" fill="#BDBA25"/>
<rect x="154.923" y="43.5" width="8.15385" height="8.7" fill="#BDBA25"/>
<rect x="154.923" y="26.1001" width="8.15385" height="8.7" fill="#BDBA25"/>
<rect x="154.923" y="17.3999" width="8.15385" height="8.7" fill="#BDBA25"/>
<rect x="195.692" y="52.1997" width="8.15385" height="8.7" fill="#BDBA25"/>
<rect x="195.692" y="43.5" width="8.15385" height="8.7" fill="#BDBA25"/>
<rect x="195.692" y="34.8003" width="8.15385" height="8.7" fill="#BDBA25"/>
<rect x="195.692" y="26.1001" width="8.15385" height="8.7" fill="#BDBA25"/>
<rect x="195.692" y="17.3999" width="8.15385" height="8.7" fill="#BDBA25"/>
<rect x="40.7693" y="43.5" width="8.15385" height="8.7" fill="#BDBA25"/>
<rect x="32.6152" y="8.69971" width="8.15385" height="8.7" fill="#BDBA25"/>
<rect x="40.7693" y="8.69971" width="8.15385" height="8.7" fill="#BDBA25"/>
<rect x="48.9229" y="8.69971" width="8.15385" height="8.7" fill="#BDBA25"/>
<rect x="57.0771" y="8.69971" width="8.15385" height="8.7" fill="#BDBA25"/>
<rect x="65.2307" y="8.69971" width="8.15385" height="8.7" fill="#BDBA25"/>
<rect x="73.3848" y="8.69971" width="8.15385" height="8.7" fill="#BDBA25"/>
<rect x="81.5383" y="8.69971" width="8.15385" height="8.7" fill="#BDBA25"/>
<rect x="89.6924" y="8.69971" width="8.15385" height="8.7" fill="#BDBA25"/>
<rect x="97.8459" y="8.69971" width="8.15385" height="8.7" fill="#BDBA25"/>
<rect x="106" y="8.69971" width="8.15385" height="8.7" fill="#BDBA25"/>
<rect x="97.8459" y="17.3999" width="8.15385" height="8.7" fill="#BDBA25"/>
<rect x="114.154" y="8.69971" width="8.15385" height="8.7" fill="#BDBA25"/>
<rect x="114.154" y="8.69971" width="8.15385" height="8.7" fill="#BDBA25"/>
<rect x="122.308" y="8.69971" width="8.15385" height="8.7" fill="#BDBA25"/>
<rect x="130.462" y="8.69971" width="8.15385" height="8.7" fill="#BDBA25"/>
<rect x="138.615" y="8.69971" width="8.15385" height="8.7" fill="#BDBA25"/>
<rect x="146.769" y="8.69971" width="8.15385" height="8.7" fill="#BDBA25"/>
<rect x="154.923" y="8.69971" width="8.15385" height="8.7" fill="#BDBA25"/>
<rect x="163.077" y="8.69971" width="8.15385" height="8.7" fill="#BDBA25"/>
<rect x="171.231" y="8.69971" width="8.15385" height="8.7" fill="#BDBA25"/>
<rect x="179.385" y="8.69971" width="8.15385" height="8.7" fill="#BDBA25"/>
<rect x="187.538" y="8.69971" width="8.15385" height="8.7" fill="#BDBA25"/>
<rect x="32.6152" y="60.8999" width="8.15385" height="8.7" fill="#BDBA25"/>
<rect x="40.7693" y="60.8999" width="8.15385" height="8.7" fill="#BDBA25"/>
<rect x="48.9229" y="60.8999" width="8.15385" height="8.7" fill="#BDBA25"/>
<rect x="57.0771" y="60.8999" width="8.15385" height="8.7" fill="#BDBA25"/>
<rect x="65.2307" y="60.8999" width="8.15385" height="8.7" fill="#BDBA25"/>
<rect x="73.3848" y="60.8999" width="8.15385" height="8.7" fill="#BDBA25"/>
<rect x="81.5383" y="60.8999" width="8.15385" height="8.7" fill="#BDBA25"/>
<rect x="89.6924" y="60.8999" width="8.15385" height="8.7" fill="#BDBA25"/>
<rect x="97.8459" y="60.8999" width="8.15385" height="8.7" fill="#BDBA25"/>
<rect x="106" y="60.8999" width="8.15385" height="8.7" fill="#BDBA25"/>
<rect x="114.154" y="60.8999" width="8.15385" height="8.7" fill="#BDBA25"/>
<rect x="114.154" y="60.8999" width="8.15385" height="8.7" fill="#BDBA25"/>
<rect x="122.308" y="60.8999" width="8.15385" height="8.7" fill="#BDBA25"/>
<rect x="130.462" y="60.8999" width="8.15385" height="8.7" fill="#BDBA25"/>
<rect x="138.615" y="60.8999" width="8.15385" height="8.7" fill="#BDBA25"/>
<rect x="146.769" y="60.8999" width="8.15385" height="8.7" fill="#BDBA25"/>
<rect x="154.923" y="60.8999" width="8.15385" height="8.7" fill="#BDBA25"/>
<rect x="163.077" y="60.8999" width="8.15385" height="8.7" fill="#BDBA25"/>
<rect x="179.385" y="60.8999" width="8.15385" height="8.7" fill="#BDBA25"/>
<rect x="187.538" y="60.8999" width="8.15385" height="8.7" fill="#BDBA25"/>
<rect x="8.15405" y="9.28027" width="8.15385" height="8.7" fill="#112024"/>
<rect y="17.98" width="8.15385" height="8.7" fill="#112024"/>
<rect y="26.6797" width="8.15385" height="8.7" fill="#112024"/>
<rect y="35.3804" width="8.15385" height="8.7" fill="#112024"/>
<rect y="44.0801" width="8.15385" height="8.7" fill="#112024"/>
<rect y="52.1997" width="8.15385" height="8.7" fill="#112024"/>
<rect x="8.15405" y="60.8999" width="8.15385" height="8.7" fill="#112024"/>
<rect x="16.3076" y="69.6001" width="8.15385" height="8.7" fill="#112024"/>
<rect x="24.4617" y="78.3003" width="8.15385" height="8.7" fill="#112024"/>
<rect x="16.3076" y="78.3003" width="8.15385" height="8.7" fill="#112024"/>
<rect x="8.15405" y="69.6001" width="8.15385" height="8.7" fill="#112024"/>
<rect y="60.8999" width="8.15385" height="8.7" fill="#112024"/>
<rect x="32.6152" y="78.3003" width="8.15385" height="8.7" fill="#112024"/>
<rect x="40.7693" y="78.3003" width="8.15385" height="8.7" fill="#112024"/>
<rect x="48.9229" y="78.3003" width="8.15385" height="8.7" fill="#112024"/>
<rect x="57.0771" y="78.3003" width="8.15385" height="8.7" fill="#112024"/>
<rect x="65.2307" y="78.3003" width="8.15385" height="8.7" fill="#112024"/>
<rect x="73.3848" y="78.3003" width="8.15385" height="8.7" fill="#112024"/>
<rect x="81.5383" y="78.3003" width="8.15385" height="8.7" fill="#112024"/>
<rect x="89.6924" y="78.3003" width="8.15385" height="8.7" fill="#112024"/>
<rect x="97.8459" y="78.3003" width="8.15385" height="8.7" fill="#112024"/>
<rect x="106" y="78.3003" width="8.15385" height="8.7" fill="#112024"/>
<rect x="114.154" y="78.3003" width="8.15385" height="8.7" fill="#112024"/>
<rect x="122.308" y="78.3003" width="8.15385" height="8.7" fill="#112024"/>
<rect x="130.462" y="78.3003" width="8.15385" height="8.7" fill="#112024"/>
<rect x="138.615" y="78.3003" width="8.15385" height="8.7" fill="#112024"/>
<rect x="146.769" y="78.3003" width="8.15385" height="8.7" fill="#112024"/>
<rect x="154.923" y="78.3003" width="8.15385" height="8.7" fill="#112024"/>
<rect x="163.077" y="78.3003" width="8.15385" height="8.7" fill="#112024"/>
<rect x="179.385" y="78.3003" width="8.15385" height="8.7" fill="#112024"/>
<rect x="171.231" y="78.3003" width="8.15385" height="8.7" fill="#112024"/>
<rect x="187.538" y="78.3003" width="8.15385" height="8.7" fill="#112024"/>
<rect x="195.692" y="69.6001" width="8.15385" height="8.7" fill="#112024"/>
<rect x="203.846" y="60.8999" width="8.15385" height="8.7" fill="#112024"/>
<rect x="16.3076" y="0.580078" width="8.15385" height="8.7" fill="#112024"/>
<rect x="97.8459" y="52.1997" width="8.15385" height="8.7" fill="#FBF5FA"/>
<rect x="97.8459" y="17.3999" width="8.15385" height="8.7" fill="#FBF5FA"/>
</svg>
